<svg aria-hidden="true" style="position: absolute; width: 0; height: 0; overflow: hidden;" version="1.1" xmlns="http://www.w3.org/2000/svg" xmlns:xlink="http://www.w3.org/1999/xlink">
<defs>
<symbol id="icon-people" viewBox="0 0 32 32">
<title>people</title>
<path d="M15.859 19.5c-1.189-0.582-2.737-1.16-3.679-2.126-0.9-0.923-0.689-3.075 0.116-3.974 1.187-1.331 1.923-3.187 1.923-4.969 0-3.405-0.355-7.924-4.353-8.429h-1.651c-4 0.504-4.355 5.023-4.355 8.428 0 1.782 0.736 3.638 1.923 4.969 0.805 0.9 1.016 3.053 0.116 3.974-0.942 0.966-2.49 1.544-3.679 2.126-0.273 0.133-1.741 0.648-2.221 1.027v7.13h21.421v-3.859c-0.031-2.286-5.562-4.296-5.562-4.296z"></path>
<path d="M27.372 19.794c-0.988-0.484-2.278-0.964-3.062-1.769-0.749-0.769-0.572-2.56 0.096-3.309 0.987-1.11 1.599-2.652 1.599-4.136 0-2.833-0.293-6.595-3.621-7.013h-1.373c-3.328 0.42-3.622 4.18-3.622 7.013 0 1.484 0.612 3.026 1.599 4.136 0.668 0.749 0.845 2.54 0.096 3.309-0.265 0.273-0.596 0.498-0.946 0.709 0.292 0.147 0.577 0.293 0.842 0.435 0 0 5.207 2.086 5.236 4.462v4.024h7.785v-4.287c-0.026-1.903-4.628-3.575-4.628-3.575z"></path>
</symbol>
<symbol id="icon-chevron-down" viewBox="0 0 32 32">
<title>chevron-down</title>
<path d="M16 19.007l-16-16.001 3.005-3.005 12.995 12.993 12.995-12.993 3.005 3.005-16 16.001z"></path>
</symbol>
<symbol id="icon-chevron-left" viewBox="0 0 32 32">
<title>chevron-left</title>
<path d="M16.001 32l-16.001-16 16.001-16 3.005 3.005-12.996 12.995 12.995 12.996-3.004 3.004z"></path>
</symbol>
<symbol id="icon-chevron-right" viewBox="0 0 32 32">
<title>chevron-right</title>
<path d="M3.005 32l-3.005-3.005 12.995-12.995-12.995-12.995 3.005-3.005 16.001 16-16.001 16z"></path>
</symbol>
<symbol id="icon-chevron-up" viewBox="0 0 32 32">
<title>chevron-up</title>
<path d="M28.995 19.007l-12.995-12.996-12.995 12.996-3.005-3.007 16-16 16 16-3.005 3.007z"></path>
</symbol>
<symbol id="icon-search" viewBox="0 0 32 32">
<title>search</title>
<path d="M22.716 20.614c1.779-2.248 2.752-5.025 2.752-7.881 0-7.021-5.711-12.733-12.733-12.733s-12.735 5.713-12.735 12.735c0 7.023 5.713 12.736 12.735 12.736 3.021 0 5.924-1.078 8.234-3.045l9.252 9.251 1.779-1.779-9.284-9.283zM12.735 22.956c-5.636 0-10.221-4.585-10.221-10.221s4.585-10.22 10.221-10.22c5.635 0 10.218 4.585 10.218 10.22s-4.582 10.221-10.218 10.221z"></path>
</symbol>
<symbol id="icon-calender" viewBox="0 0 32 32">
<title>calender</title>
<path d="M30.122 3.58h-3.482v3.552h-5.329v-3.552h-10.729v3.552h-5.33v-3.552h-3.476c-0.977 0-1.777 0.8-1.777 1.777v24.868c0 0.978 0.8 1.775 1.777 1.775h28.347c0.978 0 1.778-0.797 1.778-1.777v-24.867c-0.001-0.977-0.801-1.777-1.779-1.777zM28.42 28.448h-24.94v-14.212h24.94v14.212z"></path>
<path d="M7.032 0h1.747v5.357h-1.747v-5.357z"></path>
<path d="M23.018 0h1.747v5.357h-1.747v-5.357z"></path>
</symbol>
<symbol id="icon-check-circle" viewBox="0 0 32 32">
<title>check-circle</title>
<path d="M16 32c-8.823 0-16-7.178-16-16 0-8.823 7.177-16 16-16s16 7.177 16 16c0 8.822-7.177 16-16 16zM16 1.641c-7.918 0-14.359 6.441-14.359 14.359s6.441 14.36 14.359 14.36 14.359-6.442 14.359-14.36-6.441-14.359-14.359-14.359z"></path>
<path d="M12.549 21.981l-6.392-6.391 1.16-1.16 5.233 5.23 10.088-10.085 1.16 1.16z"></path>
</symbol>
<symbol id="icon-database" viewBox="0 0 32 32">
<title>database</title>
<path d="M28.285 19.814v-0.145h-0.019c0.005 0.050 0.019 0.095 0.019 0.145z"></path>
<path d="M2.707 19.67v0.145c0-0.050 0.014-0.095 0.014-0.145h-0.014z"></path>
<path d="M2.707 9.933v0.143c0-0.049 0.014-0.093 0.014-0.143h-0.014z"></path>
<path d="M15.493 25.745c-7.060 0-12.786-2.653-12.786-5.93v6.509h0.017c-0.003 0.049-0.017 0.093-0.017 0.143 0.495 1.315 1.631 2.563 3.279 3.585 2.353 1.193 5.736 1.948 9.507 1.948 3.622 0 6.889-0.691 9.225-1.804 1.807-1.057 3.046-2.373 3.566-3.729 0-0.050-0.014-0.095-0.019-0.143h0.019v-6.51c0.001 3.277-5.725 5.93-12.791 5.93z"></path>
<path d="M15.493 16.008c-7.060 0-12.786-2.657-12.786-5.932v5.932h0.014c0 0.050-0.014 0.095-0.014 0.145 0 3.274 5.727 5.932 12.786 5.932 7.066 0 12.791-2.657 12.791-5.932 0-0.050-0.014-0.095-0.019-0.145h0.019v-5.932c0.001 3.274-5.725 5.932-12.791 5.932z"></path>
<path d="M28.285 5.786h-0.019c-0.166-3.206-5.814-5.786-12.773-5.786-6.956 0-12.604 2.579-12.769 5.786h-0.017v0.484h0.014c0 0.050-0.014 0.095-0.014 0.145 0 3.276 5.727 5.929 12.786 5.929 7.066 0 12.791-2.653 12.791-5.929 0-0.050-0.014-0.095-0.019-0.145h0.019v-0.484z"></path>
<path d="M28.285 10.076v-0.143h-0.019c0.005 0.050 0.019 0.095 0.019 0.143z"></path>
</symbol>
<symbol id="icon-eye" viewBox="0 0 32 32">
<title>eye</title>
<path d="M16 7.21c-12.856 0-16 9.279-16 9.279v0.201c0 0 3.144 9.28 16 9.28 12.855 0 16-9.28 16-9.28v-0.201c0 0-3.145-9.279-16-9.279zM16 23.74c-3.951 0-7.151-3.2-7.151-7.151 0-3.949 3.2-7.15 7.151-7.15 3.948 0 7.151 3.201 7.151 7.15 0 3.951-3.204 7.151-7.151 7.151z"></path>
<path d="M18.184 16.756c-1.359 0-2.463-1.102-2.463-2.463 0-0.552 0.188-1.056 0.494-1.467-0.073-0.005-0.142-0.023-0.215-0.023-2.090 0-3.785 1.693-3.785 3.784 0 2.092 1.695 3.786 3.785 3.786s3.784-1.695 3.784-3.786c0-0.138-0.027-0.269-0.041-0.402-0.424 0.352-0.964 0.571-1.559 0.571z"></path>
</symbol>
<symbol id="icon-list" viewBox="0 0 32 32">
<title>list</title>
<path d="M3.978 6.149c0 1.099-0.891 1.989-1.989 1.989s-1.989-0.891-1.989-1.989c0-1.099 0.891-1.989 1.989-1.989s1.989 0.891 1.989 1.989z"></path>
<path d="M6.327 4.974h25.673v2.35h-25.673v-2.35z"></path>
<path d="M3.978 16.274c0 1.099-0.891 1.989-1.989 1.989s-1.989-0.891-1.989-1.989c0-1.099 0.891-1.989 1.989-1.989s1.989 0.891 1.989 1.989z"></path>
<path d="M6.327 15.099h25.673v2.351h-25.673v-2.351z"></path>
<path d="M3.978 26.399c0 1.099-0.891 1.989-1.989 1.989s-1.989-0.891-1.989-1.989c0-1.099 0.891-1.989 1.989-1.989s1.989 0.891 1.989 1.989z"></path>
<path d="M6.327 25.224h25.673v2.35h-25.673v-2.35z"></path>
</symbol>
<symbol id="icon-pencil-paper" viewBox="0 0 32 32">
<title>pencil-paper</title>
<path d="M29.568 1.523c-1.258-1.258-2.546-1.523-3.401-1.523-0.933 0-1.573 0.306-1.642 0.34l-16.882 16.828v6.54h6.669l16.291-16.293c0.755-0.753 1.115-1.638 1.042-2.564-0.145-1.876-1.962-3.255-2.076-3.328zM13.668 22.156h-4.471v-4.343l12.243-12.244 4.407 4.406-12.179 12.182zM29.505 6.317l-2.56 2.559-4.404-4.406 2.772-2.774c0.15-0.054 0.457-0.141 0.855-0.141 0.818 0 1.592 0.36 2.392 1.147 0.015 0.010 1.443 1.085 1.535 2.271 0.037 0.47-0.157 0.91-0.59 1.344z"></path>
<path d="M23.060 32h-17.619c-3 0-5.441-2.441-5.441-5.441v-17.619c0-3 2.441-5.441 5.441-5.441h12.046v1.554h-12.046c-2.143 0-3.887 1.743-3.887 3.887v17.619c0 2.144 1.743 3.886 3.887 3.886h17.619c2.143 0 3.887-1.742 3.887-3.886v-11.919h1.553v11.919c0 3-2.441 5.441-5.44 5.441z"></path>
</symbol>
<symbol id="icon-pencil" viewBox="0 0 32 32">
<title>pencil</title>
<path d="M30.002 2.13l-0.141-0.142c-4.082-4.083-8.471-0.608-8.471-0.608l-21.39 21.395v9.225l9.213-0.003 21.396-21.396c0 0 3.475-4.385-0.608-8.471zM8.704 30.769h-3.784c-0.186-0.925-0.563-1.775-1.187-2.456-0.684-0.745-1.556-1.172-2.505-1.345v-3.684l1.715-1.714c1.842 0.394 3.53 1.252 4.873 2.712 1.26 1.376 2.026 3.089 2.42 4.956l-1.533 1.531z"></path>
</symbol>
<symbol id="icon-plus" viewBox="0 0 32 32">
<title>plus</title>
<path d="M32 12.632h-12.63v-12.632h-6.738v12.632h-12.632v6.735h12.632v12.632h6.738v-12.632h12.63z"></path>
</symbol>
<symbol id="icon-share" viewBox="0 0 32 32">
<title>share</title>
<path d="M25.562 17.172c-2.319 0-4.339 1.243-5.471 3.087l-7.685-3.622c0.298-0.741 0.472-1.546 0.472-2.394 0-0.472-0.058-0.931-0.155-1.372l7.199-3.392c1.091 2.013 3.195 3.398 5.64 3.398 3.549 0 6.438-2.888 6.438-6.438s-2.889-6.44-6.438-6.44-6.438 2.889-6.438 6.438c0 0.552 0.091 1.078 0.22 1.588l-7.156 3.373c-1.056-2.121-3.223-3.594-5.748-3.594-3.549 0-6.438 2.888-6.438 6.438s2.889 6.438 6.438 6.438c2.144 0 4.033-1.062 5.204-2.68l7.807 3.68c-0.193 0.613-0.328 1.253-0.328 1.928 0 3.549 2.889 6.44 6.438 6.44s6.44-2.889 6.44-6.44-2.889-6.437-6.438-6.437zM25.562 1.562c2.689 0 4.878 2.188 4.878 4.878s-2.189 4.878-4.878 4.878-4.879-2.188-4.879-4.878c0-2.691 2.19-4.878 4.879-4.878zM6.438 19.122c-2.689 0-4.878-2.19-4.878-4.879s2.189-4.878 4.878-4.878 4.879 2.189 4.879 4.878c0 2.691-2.19 4.879-4.879 4.879zM25.562 28.488c-2.689 0-4.879-2.188-4.879-4.878 0-2.688 2.19-4.878 4.879-4.878s4.878 2.19 4.878 4.878c-0.001 2.691-2.19 4.878-4.878 4.878z"></path>
</symbol>
<symbol id="icon-spinner" viewBox="0 0 32 32">
<title>spinner</title>
<path d="M1.216 16.608c0-8.499 6.892-15.391 15.392-15.391 8.398 0 15.22 6.728 15.384 15.089 0.001-0.104 0.008-0.204 0.008-0.306 0-8.836-7.164-16-16-16s-16 7.164-16 16 7.164 16 16 16c0.102 0 0.202-0.006 0.303-0.008-8.36-0.164-15.087-6.986-15.087-15.384z"></path>
</symbol>
<symbol id="icon-trash" viewBox="0 0 32 32">
<title>trash</title>
<path d="M10.932 11.382h1.683v13.782h-1.683v-13.782z"></path>
<path d="M18.612 11.382h1.682v13.782h-1.682v-13.782z"></path>
<path d="M28.186 5.069h-4.979v-2.543c0-1.393-1.133-2.525-2.525-2.525h-10.135c-1.393 0-2.524 1.133-2.524 2.525v2.543h-4.98v1.683h1.631v20.198c0 2.784 2.264 5.050 5.050 5.050h11.784c2.785 0 5.050-2.266 5.050-5.050v-20.198h1.629v-1.683zM9.705 2.525c0-0.465 0.378-0.842 0.842-0.842h10.135c0.463 0 0.841 0.378 0.841 0.842v2.543h-11.818v-2.543zM24.873 26.95c0 1.855-1.51 3.368-3.368 3.368h-11.784c-1.857 0-3.366-1.513-3.366-3.368v-20.198h18.518v20.198z"></path>
</symbol>
</defs>
</svg>
